<?xml version="1.0" encoding="utf-8"?>
<!-- Generator: Adobe Illustrator 24.2.0, SVG Export Plug-In . SVG Version: 6.00 Build 0)  -->
<svg version="1.1" id="Capa_1" xmlns="http://www.w3.org/2000/svg" xmlns:xlink="http://www.w3.org/1999/xlink" x="0px" y="0px"
	 viewBox="0 0 2000 2000" style="enable-background:new 0 0 2000 2000;" xml:space="preserve">
<style type="text/css">
	.st0{fill:#FFFFFF;}
</style>
<g id="Grupo_4" transform="translate(0 0)">
	<g id="Grupo_3">
		<path id="Trazado_24" class="st0" d="M1000,842.6c-52.8,0-95.7,42.8-96,95.6v45c0,9.3,7.6,16.9,16.9,16.9h5.6v-56.2h-5.6
			c-1.9,0-3.8,0.4-5.6,1v-6.7c0-46.8,37.9-84.7,84.7-84.7s84.7,37.9,84.7,84.7v6.7c-1.8-0.7-3.7-1-5.6-1h-5.6v56.2h5.6
			c9.3,0,16.9-7.6,16.9-16.9v-45C1095.7,885.3,1052.8,842.6,1000,842.6z"/>
	</g>
</g>
<g id="Grupo_6" transform="translate(4.813 12.836)">
	<g id="Grupo_5" transform="translate(0 0)">
		<path id="Trazado_25" class="st0" d="M949.8,908.5h-5.6c-6.2,0-11.2,5-11.3,11.2c0,0,0,0,0,0v56.2c0,6.2,5,11.2,11.2,11.2h5.6
			c3.1,0,5.6-2.5,5.6-5.6v-67.4C955.4,911,952.9,908.5,949.8,908.5z"/>
	</g>
</g>
<g id="Grupo_8" transform="translate(19.36 12.836)">
	<g id="Grupo_7" transform="translate(0 0)">
		<path id="Trazado_26" class="st0" d="M1031.6,908.5h-5.6c-3.1,0-5.6,2.5-5.6,5.6v67.5c0,3.1,2.5,5.6,5.6,5.6h5.6
			c6.2,0,11.2-5,11.2-11.2v-56.3C1042.8,913.5,1037.8,908.5,1031.6,908.5z"/>
	</g>
</g>
</svg>
