<svg id="Capa_1" data-name="Capa 1" xmlns="http://www.w3.org/2000/svg" viewBox="0 0 1938.93 315.05"><defs><style>.cls-1{fill:#ff6f00;}.cls-2{fill:#fff;}</style></defs><g id="Grupo_76" data-name="Grupo 76"><path id="Trazado_1" data-name="Trazado 1" class="cls-1" d="M1005.07,1188.73a251.09,251.09,0,0,0-7.77-27.2,42.28,42.28,0,0,1-1.82-31.39A29.75,29.75,0,0,0,988,1097a51.34,51.34,0,0,1-10.1-15.8,196.46,196.46,0,0,1-5.71-25.13,847.5,847.5,0,0,0-34.43-113.92c-10.1-25.13-51.55-24.87-63.72-6.48a117.39,117.39,0,0,0-14.51,29.8c-8.56,28.75-15.8,57.75-23.57,86.77-7,26.42-13.72,53.1-20.72,79.52a109.1,109.1,0,0,1-5.44,12.69c-1-.26-2.33-.26-3.37-.52-5.18-18.91-10.35-37.81-14.76-57-.78-3.11,2.59-7.77,5.19-10.62,8.29-9.06,18.39-17.12,25.89-26.93a49.16,49.16,0,0,0,2.59-60.87,139.2,139.2,0,0,0-46.11-45.85c-38.85-23-79.26-29.48-121.47-8.81-21.5,10.59-25.9,21-21.5,44.83,2.08,11.91,7.77,23.83,1.3,38a85.58,85.58,0,0,1-7-7.51,217.46,217.46,0,0,0-57.25-51.55C551,943.39,525.64,941.86,500,942.9a31.91,31.91,0,0,0-27.46,14.26c-5.18,8-8.81,6.22-15.28,2.33A105,105,0,0,0,344.84,959c-6.22,3.62-9.84,4.92-16.57-.51-20.2-16.32-55.95-17.12-70.71,7.25-2.86,4.66-6.48,3.37-9.85.52-4.4-3.37-8.56-7.26-13-10.63-55.94-37.3-115-42.22-177.69-21.76a40.06,40.06,0,0,0-19.68,60.09,32.34,32.34,0,0,1,5.44,25.38c-2.33,26.42-6,52.84-6.74,79.52-.51,31.39,1.3,62.94,2.33,94.28a43.5,43.5,0,0,0,4.15,21.24,42.11,42.11,0,0,0,37.56,22.05c21-.51,50.25-22.53,50.25-43.51a240,240,0,0,0-.78-30.57c-3.11-20.46-3.37-20.2,16.06-28,28.54-11.66,58-21.49,82.37-41.44a55.65,55.65,0,0,1,13-6.74c.51,4.66,1.55,9.07,1.81,13.73.78,25.38.26,51,2.59,76.15a50.33,50.33,0,0,0,69.68,43,12.59,12.59,0,0,1,13.72,2.08,39.68,39.68,0,0,0,17.12,8,170.29,170.29,0,0,0,47.4-.78,527.76,527.76,0,0,0,74.07-24.87,15.16,15.16,0,0,1,17.88,2.86,65.26,65.26,0,0,0,56,11.41,151.29,151.29,0,0,0,78.73-46.36,34,34,0,0,1,7-4.92c1,2.59,2.59,5.18,3.37,7.77,2.59,9.06,4.4,18.39,7.77,26.93a38.6,38.6,0,0,0,47.77,26.43c.57-.17,1.13-.34,1.68-.53,15.8-4.15,28.75-11.66,29.79-26.42a94.16,94.16,0,0,0-1.55-25.68c-2.85-16.83-7-33.41-10.36-50.25a35.38,35.38,0,0,1,.78-10.36c1.3-.25,2.86-.51,4.15-.78,5.18,15,11.14,30.05,15.54,45.33A143.69,143.69,0,0,0,750,1212.55c17.12,21,23.57,26.68,54.39,20.47a50.14,50.14,0,0,1,17.61.78,43.14,43.14,0,0,0,31.08-3.63c13.47-8,17.36-21.76,21.76-35.19,2.59-7.25,3.89-15,6.48-22.27,3.37-9.06,11.66-11.41,26.42-10.88,9.59.51,10.62,7,12.17,13.72a176.93,176.93,0,0,0,8,31.08A54.26,54.26,0,0,0,945,1229.46a39.75,39.75,0,0,0,46.08-1.88C1005.85,1219,1007.92,1204,1005.07,1188.73ZM244.86,1043.16c-17.12,35-48.44,51.28-82.11,65-16.06,6.48-32.11,12.43-48.43,18.13a11.33,11.33,0,0,0-8.95,13.3,12.07,12.07,0,0,0,.39,1.46c2.07,11.41,3.89,23,5.7,34.45a32.83,32.83,0,0,1-23.4,40.1l-.16,0a20.78,20.78,0,0,1-30.05-19.43c-.78-25.38-.25-50.77-.25-76.41H54.74c1.55-30.56,2.59-61.12,4.66-91.69a124.92,124.92,0,0,1,6.48-27.45c1.82-5.44,1.55-8-3.89-11.14-15.54-8.81-16.32-26.68-.51-34.71a135.75,135.75,0,0,1,39.37-11.66c47.4-7.77,89.62,6,128,33.42C253.41,993.94,258.07,1016.22,244.86,1043.16Zm71.49-45.33c-12.69,45.07-7.51,90.65-7,136.24.26,15.54,1.82,31.08,2.33,46.36.26,7.77.51,16.32-8.56,20a24.52,24.52,0,0,1-25.68-4.14,40.89,40.89,0,0,1-14.26-34.45v-76.43h-.26c0-26.43-1-52.59.51-79a61.32,61.32,0,0,1,10.95-28.23,24.4,24.4,0,0,1,31.38-7.51C316.35,975.82,320.5,983.33,316.35,997.83ZM472.53,1174A64.18,64.18,0,0,1,451,1189.76a370.32,370.32,0,0,1-54.92,18.65,157.19,157.19,0,0,1-39.88,1.82c-13-.52-18.4-5.18-19.43-17.87a366.4,366.4,0,0,1-1.55-47.66,130.12,130.12,0,0,0-4.92-45.85,27.61,27.61,0,0,1,.51-17.12,76.2,76.2,0,0,0,2.86-45.58,87.35,87.35,0,0,1-2.86-29.27,46.52,46.52,0,0,1,22.53-30.3,89.59,89.59,0,0,1,94.28,1.29c5.18,3.62,9.59,7.77,8.29,14.76a14.84,14.84,0,0,1-13.2,12.68,155.26,155.26,0,0,1-26.93.25,18.13,18.13,0,0,1-6.22-1.55c-22.53-7.77-38.85,6.48-33.93,29.28a19.43,19.43,0,0,1,.25,3.89h0c.26,4.4.52,8.56.78,13,.78,11.66,1.82,12.95,13.73,14,12.43,1,24.87,1.29,37.3,2.59,13.21,1.55,21.49,8.29,21.23,16.83a22.45,22.45,0,0,1-21.23,17.61c-8,1-16.32.78-24.61,1.3-23.05,1.81-31.86,11.91-30,34.44a255.28,255.28,0,0,0,3.62,28.24c1.82,9.59,5.19,12.17,14.51,9.59,18.9-5.44,37.81-12.18,56.46-18.4,2.07-.78,3.89-2.07,5.71-2.85,6.47-2.85,13.21-4.92,19.16,1a13,13,0,0,1,1.09,18.29c-.35.4-.72.77-1.09,1.16Zm10.88-47.66c0,4.92-2.07,7.77-7.26,5.7a31,31,0,0,0-24.87,2.33c-14.76,6-29.48,11.42-44.54,16.58-10.63,3.37-10.36,2.85-12.43-7.26-4.15-20.2-3.37-23.05,20-24.34a70.07,70.07,0,0,0,43.51-13c20-16.32,18.39-37.3-3.62-51.54a52.08,52.08,0,0,0-35.75-10.1h-3.36c-17.62.25-21-3.37-20.47-21.24.26-4.66,2.33-6.48,6.48-5.71,5.44,1,10.62,2.86,16.06,4.41a48.34,48.34,0,0,0,49.22-9.59c5.44-5.18,8.56-3.89,9.06,3.11,2.85,35,5.44,70.2,7.77,105.42a33.17,33.17,0,0,1,.23,5.18Zm134.17,15.79c-16.83,22.54-36.26,43.26-64.23,51.81a127.16,127.16,0,0,1-34.19,4.92,36.06,36.06,0,0,1-19.43-6.22,18.06,18.06,0,0,1-3.62-30.3,28.51,28.51,0,0,0,9.32-24.35c-2.86-37.82-5.44-75.64-8.56-113.45A72.33,72.33,0,0,0,486.51,989a15.65,15.65,0,0,1,9.09-24.09,58.27,58.27,0,0,1,24.09-2.85,96.85,96.85,0,0,1,57,22A260.11,260.11,0,0,1,621.73,1030,93.94,93.94,0,0,1,617.58,1142.1ZM803,1212.82a21.33,21.33,0,0,1-28.53.25,55.44,55.44,0,0,1-16.84-20.46c-6.73-15.8-11.13-32.64-16.57-48.95A288.8,288.8,0,0,0,728.92,1111a61.32,61.32,0,0,0-13.46-17.12,15.89,15.89,0,0,0-27.72,8.56,79.57,79.57,0,0,0,0,29.27c2.08,13.21,6.22,25.9,9.07,39.11a122,122,0,0,1,2.58,16.57c1,11.42-2.33,17.36-11.13,20.73a21.61,21.61,0,0,1-25.9-5.19,59.3,59.3,0,0,1-11.66-25.38c-2.59-23-2.85-46.36-3.62-69.43-.26-6,1.55-12.17,1-18.12a162.6,162.6,0,0,1,8.81-68.64,55.53,55.53,0,0,0,0-35.48c-7.51-23.06-1-34.45,22.27-40.15,10.88-2.59,22-3.11,33.16-4.66,43.25.52,73,23.83,97.13,56.21a38.18,38.18,0,0,1-5.71,48.69,208.78,208.78,0,0,1-23.8,21.77,21.63,21.63,0,0,0-8.29,25.13c3.63,14.76,7.26,29.27,12.18,43.51,5.95,17.61,13.46,34.45,20,51.8C806.92,1196.47,811.35,1205,803,1212.82Zm166,7.51a20.67,20.67,0,0,1-22.82-15,223.36,223.36,0,0,1-5.19-29.27c-2.07-16.32-8.56-25.68-24.6-29.27-28.24-6-39.11-1.82-51.28,23.83-3.89,8.56-5.95,17.87-9.06,26.93a61.22,61.22,0,0,1-7,15A15.5,15.5,0,0,1,831,1219a15.78,15.78,0,0,1-11.92-16.58v-5.18a3.3,3.3,0,0,0-1.55-.26c3.11-13,6-25.9,9.32-38.85,3.11-12.43,6.22-25.13,9.85-37.56,7.77-27.71,16.06-55.43,23.56-83.41,5.71-20.72,10.63-41.7,16.32-62.42a74.8,74.8,0,0,1,9.07-22.53,19.79,19.79,0,0,1,35.48,2.58,316.75,316.75,0,0,1,26.68,76.67c3.62,21.24,10.1,42,15.54,62.68a15,15,0,0,0,2.07,4.66,50,50,0,0,1,8.81,43.51c-1.82,9.32,3.89,20,6.22,30.05a175.53,175.53,0,0,1,4.91,28,18.07,18.07,0,0,1-16,19.93l-.3,0Z" transform="translate(-30.53 -921.37)"/><path id="Trazado_2" data-name="Trazado 2" class="cls-2" d="M980.47,1172.41c-2.08-10.1-7.77-20.73-6.22-30.05a49.84,49.84,0,0,0-8.81-43.51,15,15,0,0,1-2.07-4.66c-5.19-21-11.92-41.45-15.54-62.68a317,317,0,0,0-26.68-76.67,19.79,19.79,0,0,0-35.48-2.58,74.8,74.8,0,0,0-9.07,22.53c-5.7,20.72-10.62,41.7-16.32,62.42-7.51,27.72-15.8,55.43-23.56,83.41-3.37,12.43-6.74,24.87-9.85,37.56L817.55,1197c.51,0,1,.25,1.55.25v5.19A16,16,0,0,0,831,1219a15.2,15.2,0,0,0,18.12-6.47,61.05,61.05,0,0,0,7-15,252.71,252.71,0,0,1,9.06-26.93c12.17-25.68,22.82-29.79,51.28-23.84,16.06,3.37,22.82,12.69,24.6,29.28a223.36,223.36,0,0,0,5.19,29.27,20.27,20.27,0,0,0,22.82,15,18,18,0,0,0,16.1-19.69l-.06-.59A177.33,177.33,0,0,0,980.47,1172.41Zm-60.36-81.07c-.52,21-11.13,28.53-31.08,22.53A13,13,0,0,1,878.09,1099a13.23,13.23,0,0,1,.84-3c5.18-17.87,10.62-35.49,16.06-53.1a31.86,31.86,0,0,1,4.66-7.26,32.36,32.36,0,0,1,6.74,6.48,85,85,0,0,1,13.46,46.6,8.49,8.49,0,0,1,.26,2.61Z" transform="translate(-30.53 -921.37)"/><path id="Trazado_3" data-name="Trazado 3" class="cls-2" d="M784.13,1136.92c-4.92-14.26-8.56-29-12.17-43.51a22,22,0,0,1,8.28-25.13,209,209,0,0,0,23.83-21.76,38.5,38.5,0,0,0,5.71-48.69c-24.35-32.64-54.13-56-97.39-56.46-11.13,1.55-22.27,2.07-33.15,4.66-23.31,5.7-30,17.12-22.27,40.14a52.23,52.23,0,0,1,0,35.48,158.69,158.69,0,0,0-8.81,68.64c.52,6-1.29,12.18-1,18.13.78,23,1,46.36,3.63,69.43a62.67,62.67,0,0,0,11.66,25.38,21.24,21.24,0,0,0,25.89,5.18c8.81-3.62,11.92-9.32,11.14-20.72a122.14,122.14,0,0,0-2.59-16.58c-2.85-12.95-7-25.9-9.06-39.11a79.57,79.57,0,0,1,0-29.27,15.88,15.88,0,0,1,27.71-8.56A53.94,53.94,0,0,1,729,1111.29a324.74,324.74,0,0,1,12.17,32.64c5.44,16.32,9.85,33.15,16.58,49a56,56,0,0,0,16.83,20.47,21.32,21.32,0,0,0,28.54-.26c8.29-7.51,3.62-16.06.78-23.83C797.6,1171.37,790.08,1154.28,784.13,1136.92Zm-17.61-103.08c-15.54,10.35-30.57,21.49-51,19.16-1.81,0-3.36-.26-5.18-.26-19.69-1.55-21-4.4-14.5-23,3.62-10.62,5.44-21.76,8-32.64,2.59-10.36,4.92-12.43,15.29-11.14a67.45,67.45,0,0,1,50.51,27.46C776.62,1023,775.84,1027.62,766.52,1033.84Z" transform="translate(-30.53 -921.37)"/><path id="Trazado_4" data-name="Trazado 4" class="cls-2" d="M621.46,1030.21a270.08,270.08,0,0,0-45.07-45.85,93.89,93.89,0,0,0-57-22,62.89,62.89,0,0,0-24.09,3.11,15.93,15.93,0,0,0-11.1,19.6,16.1,16.1,0,0,0,2,4.49A73.07,73.07,0,0,1,496.61,1025q4.67,56.71,8.56,113.45a28.46,28.46,0,0,1-9.32,24.35,18.07,18.07,0,0,0,3.62,30.3,41,41,0,0,0,19.43,6.22,126.76,126.76,0,0,0,34.19-4.92c28.24-8.56,47.4-29.27,64.24-51.8a95.43,95.43,0,0,0,4.14-112.42Zm-33.89,97.38a142.62,142.62,0,0,1-17.12,22.53,34.87,34.87,0,0,1-12.69,8.3c-10.1,3.89-15.79.51-17.12-10.36a363.78,363.78,0,0,1-2.85-37.3c-.51-13.21,0-26.68,0-40.15H536.5c0-16.83-.26-33.67,0-50.25.25-9.06,3.36-11.92,11.13-7.51a110,110,0,0,1,32.9,24.09C611.11,1076.05,609.81,1088.74,587.57,1127.59Z" transform="translate(-30.53 -921.37)"/><path id="Trazado_5" data-name="Trazado 5" class="cls-2" d="M472.54,1174a64.18,64.18,0,0,1-21.49,15.79,370.32,370.32,0,0,1-54.92,18.65,157.19,157.19,0,0,1-39.88,1.82c-13-.51-18.4-5.18-19.43-17.87a364.64,364.64,0,0,1-1.55-47.66,130.35,130.35,0,0,0-4.92-45.85,27.47,27.47,0,0,1,.51-17.12,76.2,76.2,0,0,0,2.86-45.58,87.09,87.09,0,0,1-2.86-29.27,46.54,46.54,0,0,1,22.53-30.3,89.59,89.59,0,0,1,94.28,1.29c5.18,3.62,9.59,7.77,8.29,14.76a14.84,14.84,0,0,1-13.21,12.69,155.26,155.26,0,0,1-26.93.25,18.13,18.13,0,0,1-6.22-1.55c-22.53-7.77-38.85,6.48-33.93,29.28a19.43,19.43,0,0,1,.25,3.89h0c.26,4.4.52,8.56.78,13,.78,11.66,1.82,12.95,13.73,14,12.43,1,24.87,1.29,37.3,2.59,13.21,1.55,21.49,8.29,21.23,16.83a22.45,22.45,0,0,1-21.23,17.61c-8,1-16.32.78-24.61,1.3-23.05,1.81-31.86,11.91-30,34.44a255.28,255.28,0,0,0,3.62,28.24c1.82,9.59,5.19,12.17,14.51,9.59,18.9-5.44,37.81-12.18,56.46-18.4,2.07-.78,3.89-2.07,5.71-2.85,6.47-2.85,13.21-4.92,19.16,1a12.93,12.93,0,0,1,1.2,18.25Q473.17,1173.39,472.54,1174Z" transform="translate(-30.53 -921.37)"/><path id="Trazado_6" data-name="Trazado 6" class="cls-2" d="M316.35,997.83c-12.69,45.07-7.51,90.65-7,136.24.26,15.54,1.82,31.08,2.33,46.36.26,7.77.51,16.32-8.56,20a24.52,24.52,0,0,1-25.68-4.14,40.89,40.89,0,0,1-14.26-34.45v-76.43H263c0-26.43-1-52.59.51-79a61.29,61.29,0,0,1,10.9-28.23,24.4,24.4,0,0,1,31.38-7.51C316.35,975.83,320.5,983.33,316.35,997.83Z" transform="translate(-30.53 -921.37)"/><path id="Trazado_7" data-name="Trazado 7" class="cls-2" d="M228.81,976.34c-38.6-27.46-80.84-41.18-128.22-33.16a126.81,126.81,0,0,0-39.1,11.65c-15.8,8.3-15,25.9.51,34.71,5.71,3.11,5.71,6,3.89,11.13a114.74,114.74,0,0,0-6.48,27.46c-2.07,30.57-3.11,61.13-4.66,91.69h2.86c0,25.39-.52,51,.25,76.41a20.73,20.73,0,0,0,30.05,19.43,32.45,32.45,0,0,0,23.81-39.22c-.08-.31-.16-.62-.25-.92-1.81-11.42-3.62-23.06-5.7-34.45a11.33,11.33,0,0,1,7.1-14.37,9.25,9.25,0,0,1,1.46-.39c16.32-5.71,32.64-11.66,48.43-18.13,33.67-13.72,65-30,82.11-65C258.08,1016.22,253.41,994,228.81,976.34Zm-31.39,57.75c-16.58,25.9-38.85,43.26-69.43,45.59-4.91-.52-8.29-.78-11.66-1.3-10.35-2.07-12.68-4.4-11.66-14.76,1.55-15.79,4.66-31.6,6.22-47.4a104.12,104.12,0,0,0,.34-25.38c-.78-7,2.33-9.32,7.51-8.56a138,138,0,0,1,36,8.29,268.57,268.57,0,0,1,37.79,24.31,12.7,12.7,0,0,1,6.35,16.81,12.85,12.85,0,0,1-1.42,2.4Z" transform="translate(-30.53 -921.37)"/><path id="Trazado_8" data-name="Trazado 8" class="cls-1" d="M1795.84,998.34a25.55,25.55,0,0,0-5.71-15c-35.19-38.6-76.93-63.2-131.06-61.13-10.36.52-20.73.26-31.08,0a137.13,137.13,0,0,0-48.7,10.63c-22.27,7.51-31.6,41.18-15.54,60.35a22.06,22.06,0,0,1,3.89,20.47c-1.29,7-4.14,7.77-9.84,3.36-4.66-3.62-8.81-8.29-13.73-11.41-31.86-21.24-71-15.54-100.75,7.51-8.29,6.48-16.32,13.47-25.13,21a55.88,55.88,0,0,1,0-11.42,42.6,42.6,0,0,0-5.18-30.82,145.59,145.59,0,0,0-57.5-56,119.24,119.24,0,0,0-64.75-13.71,105.81,105.81,0,0,0-48.69,9.59c-19.69,10.62-25.68,22.27-21.24,44a297.23,297.23,0,0,1,4.41,30.57c.25,2.07-1.82,4.4-2.86,6.73a33.28,33.28,0,0,1-6-3.89c-10.36-10.88-20.46-22.27-31.38-32.64a124.51,124.51,0,0,0-100-35.74,37.6,37.6,0,0,0-29.27,60.09,41.32,41.32,0,0,1,5.18,16.84c1.82,15,2.86,30,3.89,45.07,1.55,24.09,3.11,48.18,3.89,72.27a21.25,21.25,0,0,1-4.66,12.69c-16.06,21.24-12.95,41.71,8.81,57.25,23,16.57,47.65,14.26,72.53,5.18a153.18,153.18,0,0,0,61.12-42c1.55-1.82,3.62-3.11,5.44-4.92a28.6,28.6,0,0,1,4.4,7,276.11,276.11,0,0,0,8.3,29.48c10.62,25.13,28.23,29.79,52.84,23.57,22.27-5.71,30-19.69,25.67-44.29-3.36-18.13-7.51-36-10.88-54.13a82.82,82.82,0,0,1,0-13.73c1-.25,2.33-.25,3.37-.51a89.37,89.37,0,0,1,6.22,12.17c4.66,13.47,8.28,26.94,13.47,40.15a232.92,232.92,0,0,0,18.9,43.51c17.12,26.93,39.63,35,67.86,18.39a26,26,0,0,0,10.65-35.13c-.26-.47-.52-.93-.81-1.39-2.33-4.66-4.66-9.84-7-15.28a19.19,19.19,0,0,1,4.15,0c3.37,3.11,6.73,6.47,10.36,9.84a88.44,88.44,0,0,0,101,18.94,253.42,253.42,0,0,0,32.9-20c2.07-1.29,5.44-3.62,6.47-3.11a13.47,13.47,0,0,1,4.15,7.26c.78,3.37,0,7,.78,10.36a61.77,61.77,0,0,0,4.66,17.12,39.19,39.19,0,0,0,41.45,19.43c22-2.59,43.75-21.5,45.58-42.48a136.49,136.49,0,0,0-1.55-30.82c-3.37-20.72-3.62-20.47,15.8-28a327.1,327.1,0,0,0,79.51-38.59C1781.59,1069.57,1798.69,1038.75,1795.84,998.34Zm-610.5,164.22a176.27,176.27,0,0,1-47.91,30,50.47,50.47,0,0,1-53.88-5.19c-11.92-9.06-12.69-16.83-2.59-28a27.21,27.21,0,0,0,7.77-21.23c-2.07-39.89-3.62-80-6.73-119.93a79.3,79.3,0,0,0-9.84-27.72c-7.77-15.54-3.37-26.93,13.46-31.6a74.63,74.63,0,0,1,53.88,7,185,185,0,0,1,70.45,61.39,96.8,96.8,0,0,1,14,50.51A117.59,117.59,0,0,1,1185.34,1162.56ZM1393,1040.05a175.77,175.77,0,0,1-23.31,20.46,28.33,28.33,0,0,0-11.92,35l28.75,81.6a117.1,117.1,0,0,1,6,18.39A16,16,0,0,1,1381,1215a16.2,16.2,0,0,1-4.8.48,26.36,26.36,0,0,1-25.9-14,303.59,303.59,0,0,1-17.61-38.59c-4.66-12.43-6-26.42-11.42-38.34a213.62,213.62,0,0,0-20.2-31.38,14.06,14.06,0,0,0-18.39-4.41,13.12,13.12,0,0,0-10.36,14.51c2.33,19.16,5.44,38.33,8.56,57.24,1.3,8,3.89,16.06,4.41,24.09.78,11.92-2.59,16.58-12.18,20.2a21.42,21.42,0,0,1-26.67-7,74.48,74.48,0,0,1-9.32-21.24,231,231,0,0,1-5.44-75.13c-3.37-25.68,5.7-55.68,11.41-86.25a51.52,51.52,0,0,0-2.07-30.57,51.25,51.25,0,0,1-3.11-12.43,21.37,21.37,0,0,1,12.47-24.58,95.46,95.46,0,0,1,21.76-8A114.73,114.73,0,0,1,1375.72,974a244.35,244.35,0,0,1,18.39,21.49A32,32,0,0,1,1393,1040.05Zm4.4,22c-4.66,18.65-8.56,34.45-12.43,50.51a65.33,65.33,0,0,1-8.56-30.56,6.84,6.84,0,0,1,2.59-5.44c5.5-4.41,10.94-8.54,18.44-14.51Zm129,118.89a82.41,82.41,0,0,1-89.1-4.41c-26.16-20-40.89-57.75-29.26-86.25a134.91,134.91,0,0,1,65.79-75.13,62.43,62.43,0,0,1,46.88,0c37.55,12.69,50.25,30,52.84,81.85a98.77,98.77,0,0,1-47.11,83.94Zm250.25-153.34a98.87,98.87,0,0,1-34.19,50.51,204.23,204.23,0,0,1-73.56,36.52,132.2,132.2,0,0,0-17.12,5.71c-15.28,5.44-18.65,10.88-17.36,27.19.78,7.78,2.59,15.29,2.86,23.06a117.44,117.44,0,0,1-1.82,26.93,25.16,25.16,0,0,1-24.6,21,28.85,28.85,0,0,1-30.57-17.12,78.91,78.91,0,0,1-4.15-29c1.55-35.74,3.88-71.49,6.22-107.23,1.55-23.57.52-47.4,8-70.46a8.9,8.9,0,0,0-3.89-7.77,18.06,18.06,0,0,1-11.66-19.68,19.74,19.74,0,0,1,14.27-18.4A264.21,264.21,0,0,1,1629,939a169.63,169.63,0,0,1,28.24-.26,130.15,130.15,0,0,1,74.86,17.36,204.57,204.57,0,0,1,39.37,28.75C1783.91,996.78,1781.33,1013.63,1776.67,1027.61Z" transform="translate(-30.53 -921.37)"/><path id="Trazado_9" data-name="Trazado 9" class="cls-2" d="M1771.49,984.88a204.57,204.57,0,0,0-39.37-28.75,129.67,129.67,0,0,0-74.86-17.36A169.63,169.63,0,0,0,1629,939a298.79,298.79,0,0,0-39.88,9.84,20.07,20.07,0,0,0-14.27,18.39A18.36,18.36,0,0,0,1586.53,987a8.9,8.9,0,0,1,3.89,7.77c-7.51,23-6.48,46.88-8,70.45-2.33,35.75-4.91,71.5-6.22,107.24a84.68,84.68,0,0,0,4.15,29,28.18,28.18,0,0,0,30.57,17.12,25.41,25.41,0,0,0,24.6-21,117.44,117.44,0,0,0,1.82-26.93c0-7.77-2.08-15.29-2.86-23.06-1.29-16.32,2.08-21.49,17.36-27.2a146.8,146.8,0,0,1,17.12-5.7,198.37,198.37,0,0,0,73.56-36.52,99.91,99.91,0,0,0,34.16-50.52C1781.33,1013.63,1783.92,996.78,1771.49,984.88Zm-47.91,41.18a114.31,114.31,0,0,1-49.46,45.85,106.92,106.92,0,0,1-17.36,4.4c-6.22-.51-9.58-.78-13-1.29-8-1-13-5.44-12.17-13.73,1.55-15.28,3.11-30.82,6.22-46.1,1.81-9.32,6-17.87,2.33-27.72-2.33-6,1.55-7.77,6.73-7.77A43.49,43.49,0,0,1,1657,981a217.34,217.34,0,0,1,63.2,32.11c4.38,3.36,7.24,7.25,3.35,12.95Z" transform="translate(-30.53 -921.37)"/><path id="Trazado_10" data-name="Trazado 10" class="cls-2" d="M1520.77,1014.92a62.46,62.46,0,0,0-46.89,0,135.84,135.84,0,0,0-65.8,75.13c-11.66,28.75,3.11,66.31,29.49,86.25a81.9,81.9,0,0,0,89.1,4.41,98.75,98.75,0,0,0,47.14-83.92C1571,1045,1558.32,1027.62,1520.77,1014.92Zm-23.84,136.24a24.25,24.25,0,0,1-32.11-10.88c-15-22.83-3.12-61.65,20-75.13a28,28,0,0,1,41.7,19.16c1,6,1.55,11.92,1.82,15-.07,27-10.65,43.8-31.37,51.83Z" transform="translate(-30.53 -921.37)"/><path id="Trazado_11" data-name="Trazado 11" class="cls-2" d="M1369.77,1060.51a159.8,159.8,0,0,0,23.31-20.47,31.67,31.67,0,0,0,.78-44.29c-6.22-7.26-11.66-15-18.4-21.5a114.26,114.26,0,0,0-103.6-34.44,100.45,100.45,0,0,0-21.76,8,22,22,0,0,0-12.43,24.61,51.37,51.37,0,0,0,3.11,12.43,53.42,53.42,0,0,1,2.07,30.57c-5.71,30.56-14.5,60.61-11.41,86.25a237.33,237.33,0,0,0,5.44,75.13,81.47,81.47,0,0,0,9.32,21.24,21.75,21.75,0,0,0,26.67,7c9.59-3.63,13-8.3,12.18-20.2-.52-8-3.11-16.07-4.41-24.09-3.11-19.17-6.22-38-8.56-57.25a13.11,13.11,0,0,1,10.36-14.5,14.06,14.06,0,0,1,18.39,4.4,189.65,189.65,0,0,1,20.2,31.39c5.44,12.17,6.74,25.89,11.42,38.33a303.72,303.72,0,0,0,17.61,38.6,25.58,25.58,0,0,0,25.9,14,16.19,16.19,0,0,0,16.32-20,117.78,117.78,0,0,0-6-18.39l-28.75-81.59A29,29,0,0,1,1369.77,1060.51Zm-14-32.9a79.86,79.86,0,0,1-56.47,21.49c-3.11,0-6,.26-9.06,0-9.06-.78-12.17-3.36-10.88-12.17,2.33-15.28,5.71-30.3,9.06-45.59a11,11,0,0,1,12.81-8.77c.31.06.61.13.92.22a77.93,77.93,0,0,1,54.64,28.53,10.22,10.22,0,0,1,1.12,14.41,10.67,10.67,0,0,1-2.14,1.89Z" transform="translate(-30.53 -921.37)"/><path id="Trazado_12" data-name="Trazado 12" class="cls-2" d="M1209.94,1027.35A183.15,183.15,0,0,0,1139.49,966a72.3,72.3,0,0,0-53.88-7c-16.57,4.92-21,16.32-13.46,31.6a79.3,79.3,0,0,1,9.84,27.72c3.11,39.89,4.66,80,6.73,119.93a28.57,28.57,0,0,1-7.77,21.23c-10.1,10.88-9.06,18.65,2.59,28a50,50,0,0,0,53.88,5.19,176.27,176.27,0,0,0,47.91-30,116.38,116.38,0,0,0,38.34-84.7A94.35,94.35,0,0,0,1209.94,1027.35Zm-28.23,78.74a197.91,197.91,0,0,1-16.84,31.86,30.55,30.55,0,0,1-10.1,9.84c-19.43,12.18-28,7.77-29.48-15-1.29-20.73-2.33-41.18-3.62-61.91H1123l-2.33-46.6c-.51-10.88,2.59-13.47,12.95-9.59a85,85,0,0,1,50.75,52.05,51.91,51.91,0,0,1-2.61,39.38Z" transform="translate(-30.53 -921.37)"/><path id="Trazado_13" data-name="Trazado 13" class="cls-1" d="M1968.35,1188.73c-2.86-12.18-6.74-24.09-10.36-35.75a39.62,39.62,0,0,1-.51-25.12,29.13,29.13,0,0,0-8.56-33.94,25.14,25.14,0,0,1-7.52-11.41c-5.7-22-9.84-44.54-16.32-66.3-7.25-25.13-15.79-50-24.6-74.6A25.36,25.36,0,0,0,1871,922.18a26.62,26.62,0,0,1-7.77,0,31.5,31.5,0,0,0-29.48,15.28,60.82,60.82,0,0,0-9.07,18.39c-9.84,34.19-19.16,68.64-28.75,102.83-9.32,33.93-18.65,67.86-27.46,101.76-3.11,11.66-5.18,23.31-7.25,33.41,1.55,9.32,2.33,16.58,3.89,23.57a12.42,12.42,0,0,0,3.62,6.48,41.43,41.43,0,0,0,58.26-6.16c.36-.44.72-.9,1.06-1.36a67.73,67.73,0,0,0,8.56-17.35c3.11-8.81,5.18-18.13,7.77-27.2,2.58-9.85,10.62-12.43,25.38-12.69,9.59-.26,12.69,5.95,14.5,14.5a214.49,214.49,0,0,0,11.92,40.41c7.77,17.12,29.27,23.06,49.22,15.8A34,34,0,0,0,1968.35,1188.73Zm-30,28.75a23.55,23.55,0,0,1-24.87-9.85,147.87,147.87,0,0,1-10.35-23.56,68.69,68.69,0,0,1-2.59-12.69,35,35,0,0,0-56.72-20.47,43,43,0,0,0-16.58,24.09,134.76,134.76,0,0,1-8.3,23.07,46,46,0,0,1-9.32,13.73,16.73,16.73,0,0,1-28.75-7.26c-1.55-4.4-2.07-9.06-3.37-14,1.55-6.73,2.86-13.47,4.66-20,7.52-25.68,15.54-51,22.83-76.66,9.58-33.67,18.65-67.35,28-100.76,1.55-5.44,2.07-11.14,3.89-16.32a155,155,0,0,1,13.73-30.56c11.14-16.32,30-13.72,36.78,4.92s12.43,37.56,17.61,56.72c6.73,25.9,11.92,51.81,18.91,77.7a51.31,51.31,0,0,0,11.41,19.43,18.7,18.7,0,0,1,6,18.65,72.17,72.17,0,0,0,3.88,44.29,125,125,0,0,1,5.19,27.72,18.44,18.44,0,0,1-12,21.77Z" transform="translate(-30.53 -921.37)"/><path id="Trazado_14" data-name="Trazado 14" class="cls-2" d="M1950.48,1195.72a125,125,0,0,0-5.19-27.72,72.1,72.1,0,0,1-3.89-44.29,19.21,19.21,0,0,0-6-18.65,54.83,54.83,0,0,1-11.41-19.43c-7-25.68-12.18-51.8-18.91-77.7-4.93-19.16-10.88-38-17.61-56.72s-25.9-21.24-36.78-4.92A155.26,155.26,0,0,0,1837,976.86a112.93,112.93,0,0,0-3.89,16.32c-9.32,33.67-18.4,67.34-28,100.75-7.26,25.68-15.29,51-22.83,76.67-2.07,6.48-3.11,13.47-4.66,20a79,79,0,0,0,3.37,14,16.73,16.73,0,0,0,28.75,7.26,45.81,45.81,0,0,0,9.33-13.73,153.35,153.35,0,0,0,8.29-23A44.85,44.85,0,0,1,1844,1151a35.19,35.19,0,0,1,56.72,20.47,73.14,73.14,0,0,0,2.59,12.68,157.91,157.91,0,0,0,10.35,23.57,23.53,23.53,0,0,0,24.87,9.84A18.91,18.91,0,0,0,1950.48,1195.72Zm-76.41-86.55a23.94,23.94,0,0,1-26.68-3.11A11.7,11.7,0,0,1,1844,1097c5.18-20.73,10.88-41.45,16.32-62.16h4.91a142.27,142.27,0,0,1,20.2,54.64,16.24,16.24,0,0,1-11.4,19.77Z" transform="translate(-30.53 -921.37)"/><path id="Trazado_15" data-name="Trazado 15" class="cls-1" d="M769.88,1013.37a66.61,66.61,0,0,0-50.51-27.48c-10.35-1.3-12.68.78-15.28,11.13-2.59,10.88-4.4,22-8,32.64-6.47,18.65-5.18,21.5,14.51,23.06,1.81,0,3.36.25,5.18.25,20.2,2.33,35.48-8.8,51-19.16C775.84,1027.62,776.62,1023,769.88,1013.37Zm-23.59,12.46c-7.51,3.89-15.54,6.73-22.53,9.84a62.21,62.21,0,0,1-6.73-2.58c1.29-9.07,2.85-18.13,4.91-26.94,0-.51,3.37-1.29,4.66-.78a190.61,190.61,0,0,1,20.47,10.36C751.75,1018.55,751.23,1023.21,746.29,1025.83Z" transform="translate(-30.53 -921.37)"/><path id="Trazado_16" data-name="Trazado 16" class="cls-1" d="M193.06,1014.92a268.55,268.55,0,0,0-37.82-24.35,149.29,149.29,0,0,0-36-8.29c-5.19-.78-8.56,1.55-7.52,8.56a118.32,118.32,0,0,1-.26,25.38c-1.81,15.8-4.66,31.39-6.21,47.4-1,10.36,1.29,13,11.41,14.76a106.07,106.07,0,0,0,11.66,1.3c30.56-2.59,52.58-20,69.42-45.59a13.14,13.14,0,0,0-3.25-18.3A14,14,0,0,0,193.06,1014.92Zm-17.62,16.32a76.51,76.51,0,0,1-39.37,28c-9.06,2.85-11.66.26-11.92-9.32,3.11-13.47,6.48-26.68,8.81-40.14,1.29-7.77,5.18-8,10.88-5.19,9.84,5.19,19.69,10.36,29.48,15.8a6.55,6.55,0,0,1,2.12,10.88Z" transform="translate(-30.53 -921.37)"/><path id="Trazado_17" data-name="Trazado 17" class="cls-1" d="M920.1,1088.74v2.59c-.51,21-11.13,28.53-31.08,22.53A13,13,0,0,1,878.08,1099a13.23,13.23,0,0,1,.84-3c5.19-17.87,10.63-35.48,16.07-53.1a31.25,31.25,0,0,1,4.66-7.25,32.25,32.25,0,0,1,6.73,6.47A83.23,83.23,0,0,1,920.1,1088.74Z" transform="translate(-30.53 -921.37)"/><path id="Trazado_18" data-name="Trazado 18" class="cls-1" d="M580.05,1036.94a118.75,118.75,0,0,0-32.9-24.09c-7.51-4.41-10.88-1.55-11.14,7.51-.25,16.83,0,33.67,0,50.25h1.3c0,13.47-.26,26.68,0,40.15.51,12.43,1.29,24.87,2.85,37.3,1.29,10.88,7,14,17.12,10.36a32.8,32.8,0,0,0,12.69-8.3,131.6,131.6,0,0,0,17.12-22.53C609.81,1088.74,611.11,1076.05,580.05,1036.94Zm-4.15,71.23c-3.11,6-6.48,11.92-10.1,17.62-1,1.55-3.37,2.07-4.92,3.1-.78-1.81-2.33-3.62-2.33-5.43-1-17.62-1.81-35.19-2.85-52.07,0-7.25-.26-14.26.26-21.23a21.4,21.4,0,0,1,2.33-6.48,13.82,13.82,0,0,1,5.44,2.85c18.1,21.21,24.58,37.81,12.15,61.64Z" transform="translate(-30.53 -921.37)"/><path id="Trazado_19" data-name="Trazado 19" class="cls-1" d="M1719.69,1013.1a224,224,0,0,0-63.2-32.11,33.81,33.81,0,0,0-10.1-1.3c-5.18,0-8.81,1.82-6.74,7.77a46.09,46.09,0,0,1-2.33,27.72,450,450,0,0,0-6.22,46.1c-.77,8.3,4.15,12.69,12.18,13.73,3.37.51,6.73.78,13,1.29a106.66,106.66,0,0,0,17.35-4.35A111.46,111.46,0,0,0,1723,1026.1C1727.46,1020.36,1724.6,1016.47,1719.69,1013.1Zm-20.2,16.84a78.15,78.15,0,0,1-37.82,27.2c-9.84,3.37-11.14,1.29-11.92-13.47,2.86-11.92,6-23.83,8.56-36,1.56-7,5.44-8,11.14-5.18,9.32,4.92,18.65,10.1,28,15.29a7.61,7.61,0,0,1,2.06,12.18Z" transform="translate(-30.53 -921.37)"/><path id="Trazado_20" data-name="Trazado 20" class="cls-1" d="M1356.81,1011.3a78,78,0,0,0-54.64-28.53,11,11,0,0,0-13.51,7.64c-.09.3-.16.61-.22.92-3.36,15-6.73,30.3-9.06,45.58-1.29,8.81,2.07,11.41,10.88,12.17,2.85.26,6,0,9.06,0a78.74,78.74,0,0,0,56.47-21.49,10.2,10.2,0,0,0,1-16.29ZM1320,1029.17a25,25,0,0,1-8.56,2.58c-9.32,1.82-10.36.78-9.85-10.1.26-1.29.78-3.88,1-6.47,2.85-14.27,4.4-15.54,17.12-9.32a86.4,86.4,0,0,1,15.28,12.68C1330.14,1022.18,1325.21,1026.06,1320,1029.17Z" transform="translate(-30.53 -921.37)"/><path id="Trazado_21" data-name="Trazado 21" class="cls-1" d="M1184.83,1067a85.59,85.59,0,0,0-50.77-52.06c-10.36-3.89-13.47-1.29-13,9.59l2.33,46.6h-1.3c1.3,20.72,2.33,41.18,3.63,61.9,1.29,22.83,10.1,27.2,29.48,15a30.48,30.48,0,0,0,10.1-9.85,197.44,197.44,0,0,0,16.83-31.86A57.43,57.43,0,0,0,1184.83,1067Zm-18.13,25.13a262.55,262.55,0,0,1-15.8,32.11c-.78,1.55-3.36,2.08-5.18,2.59a5.44,5.44,0,0,1-2.07-3.89c-1.3-26.93-2.33-53.88-3.37-80.84,0-.78.78-1.29,1.82-3.37a67,67,0,0,1,24.09,33.41,31,31,0,0,1,.5,19.95Z" transform="translate(-30.53 -921.37)"/><path id="Trazado_22" data-name="Trazado 22" class="cls-1" d="M1526.72,1084.6a28.08,28.08,0,0,0-41.71-19.17c-23,13.47-35,52.06-20,75.13a24.4,24.4,0,0,0,32.12,10.88c20.47-8.29,31.38-24.87,31.6-51.54C1528,1096.51,1527.75,1090.56,1526.72,1084.6Zm-29.79,48.13c-10.1,7.51-16.32,6.22-20-6a48.75,48.75,0,0,1-.52-21.23,69.94,69.94,0,0,1,7.25-16.32,14.92,14.92,0,0,1,17.62-9.59c9.32,1.55,7.51,9.06,9.06,14.76a13.54,13.54,0,0,1,.51,4.15C1509.36,1112.31,1507.81,1124.48,1496.93,1132.73Z" transform="translate(-30.53 -921.37)"/><path id="Trazado_23" data-name="Trazado 23" class="cls-1" d="M1874.06,1109.2a24,24,0,0,1-26.68-3.11A11.71,11.71,0,0,1,1844,1097c5.18-20.73,10.88-41.45,16.32-62.17h4.91a142.36,142.36,0,0,1,20.2,54.66A16.23,16.23,0,0,1,1874.06,1109.2Z" transform="translate(-30.53 -921.37)"/></g></svg>