<svg id="Capa_1" data-name="Capa 1" xmlns="http://www.w3.org/2000/svg" viewBox="0 0 441.02 71.65"><defs><style>.cls-1{fill:#4e4e4e;}.cls-2{fill:#fff;}</style></defs><g id="Grupo_1" data-name="Grupo 1"><path id="Trazado_1" data-name="Trazado 1" class="cls-1" d="M387.73,490.56a57.47,57.47,0,0,0-1.76-6.19c-.71-2.35-1.53-4.59-.41-7.12,1.23-2.89.23-5.25-1.71-7.54a11.76,11.76,0,0,1-2.3-3.6,44.51,44.51,0,0,1-1.3-5.71,193.52,193.52,0,0,0-7.83-25.93c-2.3-5.71-11.73-5.65-14.5-1.47a27.06,27.06,0,0,0-3.3,6.77c-1.94,6.54-3.59,13.14-5.36,19.74-1.59,6-3.12,12.07-4.71,18.08a23.71,23.71,0,0,1-1.24,2.89c-.23-.06-.53-.06-.76-.12-1.18-4.3-2.36-8.6-3.36-13-.18-.7.59-1.76,1.18-2.41,1.88-2.06,4.18-3.89,5.89-6.13,3.47-4.71,3.53-9.25.59-13.84a31.67,31.67,0,0,0-10.48-10.43c-8.84-5.24-18-6.71-27.63-2-4.89,2.42-5.89,4.77-4.89,10.19.47,2.71,1.77,5.42.3,8.66a17,17,0,0,1-1.59-1.7,49.27,49.27,0,0,0-13-11.73c-5.06-3.24-10.84-3.59-16.67-3.36-2.65.12-4.89,1.06-6.24,3.24-1.18,1.83-2,1.42-3.48.53-8.48-4.83-17-5.18-25.56-.12-1.42.83-2.24,1.12-3.77-.11-4.6-3.72-12.73-3.89-16.09,1.65-.65,1.06-1.47.76-2.24.11-1-.76-1.94-1.65-2.94-2.41-12.73-8.48-26.16-9.6-40.41-5-5.72,1.88-7.84,9.37-4.48,13.67,1.47,1.88,1.42,3.71,1.24,5.77-.53,6-1.36,12-1.53,18.08-.12,7.13.29,14.32.53,21.45.05,1.65.11,3.59.94,4.83,2,2.89,4.3,5.06,8.54,5,4.77-.12,11.43-5.13,11.43-9.9a53.93,53.93,0,0,0-.18-7c-.71-4.65-.76-4.59,3.65-6.36,6.48-2.65,13.2-4.89,18.74-9.42a12.28,12.28,0,0,1,2.94-1.53c.12,1.06.35,2.06.41,3.12.18,5.77.06,11.6.59,17.32.77,8,8.25,12.54,15.85,9.78a2.84,2.84,0,0,1,3.12.47,8.94,8.94,0,0,0,3.89,1.82c3.59.18,7.36.65,10.78-.17a120.4,120.4,0,0,0,16.85-5.66c1.82-.76,2.71-.35,4.06.65a14.84,14.84,0,0,0,12.73,2.59,34.43,34.43,0,0,0,17.91-10.54,7.36,7.36,0,0,1,1.59-1.12c.23.59.59,1.18.76,1.77.59,2.06,1,4.18,1.77,6.12,1.94,5.07,6.07,7.3,11.25,5.89,3.59-.94,6.54-2.65,6.78-6a21.52,21.52,0,0,0-.36-5.83c-.65-3.83-1.59-7.6-2.35-11.43a8.06,8.06,0,0,1,.17-2.35l.95-.18c1.17,3.42,2.53,6.83,3.53,10.31,1.24,4.36,2.59,8.66,5.48,12.19,3.89,4.78,5.36,6.07,12.37,4.66a11.27,11.27,0,0,1,4,.18c2.47.41,4.83.53,7.07-.83,3.06-1.83,3.94-5,4.94-8,.59-1.65.89-3.42,1.48-5.07.76-2.06,2.65-2.59,6-2.47,2.18.12,2.41,1.59,2.77,3.12.58,2.36.82,4.89,1.82,7.07a12.3,12.3,0,0,0,3.89,5.18,9,9,0,0,0,10.48-.41C387.91,497.45,388.38,494,387.73,490.56ZM214.84,457.45c-3.89,7.95-11,11.66-18.68,14.79-3.65,1.47-7.3,2.82-11,4.12-1.77.59-2.24,1.65-2,3.36.47,2.59.89,5.24,1.3,7.83.71,4.6-1.06,7.6-5.36,9.13-3.6,1.29-6.72-.59-6.84-4.42-.17-5.77-.05-11.54-.05-17.37h-.65c.35-6.95.59-13.9,1.06-20.86a27.91,27.91,0,0,1,1.47-6.24c.41-1.24.35-1.83-.88-2.53-3.54-2-3.71-6.07-.12-7.9a30.77,30.77,0,0,1,9-2.65c10.78-1.77,20.38,1.36,29.1,7.6C216.78,446.26,217.84,451.32,214.84,457.45Zm16.26-10.31c-2.89,10.25-1.71,20.62-1.6,31,.06,3.53.42,7.07.53,10.54.06,1.77.12,3.71-1.94,4.54a5.57,5.57,0,0,1-5.83-.95c-2.53-2-3.24-4.83-3.24-7.83V467.05H219c0-6-.24-12,.12-18a13.87,13.87,0,0,1,2.47-6.42,5.54,5.54,0,0,1,7.13-1.7C231.1,442.13,232,443.84,231.1,447.14Zm35.52,40.06a14.69,14.69,0,0,1-4.89,3.59A83.49,83.49,0,0,1,249.24,495c-2.89.71-6.07.47-9.07.41s-4.19-1.17-4.42-4.06a83.44,83.44,0,0,1-.35-10.84,29.65,29.65,0,0,0-1.12-10.43,6.14,6.14,0,0,1,.12-3.88,17.34,17.34,0,0,0,.64-10.37,19.69,19.69,0,0,1-.64-6.66c.47-3,2.59-5.18,5.12-6.89,5.89-4,15.61-3.83,21.44.29,1.18.83,2.18,1.77,1.89,3.36a3.39,3.39,0,0,1-3,2.89,36.91,36.91,0,0,1-6.13.06,4.31,4.31,0,0,1-1.41-.36c-5.13-1.76-8.84,1.48-7.72,6.66a4.39,4.39,0,0,1,.06.89h0c.06,1,.12,1.94.18,2.94.17,2.65.41,2.95,3.12,3.18s5.65.3,8.48.59c3,.35,4.89,1.89,4.83,3.83s-2.12,3.65-4.83,4c-1.82.23-3.71.17-5.6.29-5.24.41-7.24,2.71-6.83,7.84a58.08,58.08,0,0,0,.82,6.42c.42,2.18,1.18,2.77,3.3,2.18,4.3-1.24,8.6-2.77,12.85-4.19.47-.17.88-.47,1.3-.64,1.47-.65,3-1.12,4.36.23a2.94,2.94,0,0,1,.25,4.15,3.31,3.31,0,0,1-.26.27Zm2.47-10.84c0,1.12-.47,1.77-1.65,1.3-2-.83-3.77-.24-5.65.53-3.36,1.35-6.72,2.58-10.14,3.77-2.41.76-2.35.64-2.82-1.65-1-4.6-.77-5.25,4.53-5.54,3.6-.18,7-.59,9.9-2.95,4.54-3.71,4.19-8.48-.82-11.72-2.59-1.71-5.42-2.71-8.13-2.3h-.77c-4,.06-4.77-.76-4.65-4.83.06-1.06.53-1.47,1.47-1.3,1.24.24,2.42.65,3.65,1,4.07,1.12,7.9.88,11.2-2.18,1.23-1.18,1.94-.88,2.06.71.65,7.95,1.24,16,1.77,24a7.9,7.9,0,0,1,0,1.19ZM299.61,480c-3.83,5.13-8.25,9.84-14.61,11.78a28.47,28.47,0,0,1-7.78,1.12,8.13,8.13,0,0,1-4.42-1.41c-2.77-1.65-3.12-4.65-.82-6.89A6.48,6.48,0,0,0,274.1,479c-.65-8.6-1.24-17.2-1.94-25.8a16.53,16.53,0,0,0-2.36-8.07,3.56,3.56,0,0,1,.89-4.95,3.87,3.87,0,0,1,1.17-.53,13.24,13.24,0,0,1,5.48-.65,22.07,22.07,0,0,1,13,5c3.71,3.18,7.36,6.36,10.25,10.43,2.77,3.83,3.53,7.95,3.77,12.13A21.83,21.83,0,0,1,299.61,480ZM341.79,496a4.85,4.85,0,0,1-6.48.06,12.52,12.52,0,0,1-3.83-4.65c-1.54-3.59-2.54-7.42-3.77-11.13a67.63,67.63,0,0,0-2.77-7.43,13.9,13.9,0,0,0-3.07-3.88c-2.47-2.18-5.6-1.3-6.3,1.94a18.18,18.18,0,0,0,0,6.66c.48,3,1.42,5.89,2.07,8.9a28.15,28.15,0,0,1,.59,3.77c.23,2.59-.53,3.94-2.54,4.71s-4.71.53-5.89-1.18-2.47-3.77-2.65-5.77c-.59-5.24-.65-10.55-.82-15.79-.06-1.35.35-2.77.23-4.12a37,37,0,0,1,2-15.61,12.53,12.53,0,0,0,0-8.07c-1.71-5.25-.23-7.84,5.07-9.14,2.47-.58,5-.7,7.54-1.06,9.84.12,16.61,5.42,22.09,12.79,2.41,3.24,1.71,8-1.3,11.07a47.92,47.92,0,0,1-5.42,4.95,4.92,4.92,0,0,0-1.89,5.71c.83,3.36,1.65,6.66,2.77,9.9,1.36,4,3.07,7.84,4.54,11.79.71,1.87,1.71,3.82-.18,5.58Zm37.76,1.71a4.69,4.69,0,0,1-5.19-3.41,52.18,52.18,0,0,1-1.18-6.66c-.47-3.71-1.94-5.83-5.6-6.66-6.42-1.35-8.9-.41-11.66,5.42-.88,1.95-1.36,4.07-2.06,6.13a13.94,13.94,0,0,1-1.59,3.41,3.54,3.54,0,0,1-4.13,1.48,3.6,3.6,0,0,1-2.71-3.77V492.5a.7.7,0,0,0-.35-.06c.71-2.94,1.36-5.89,2.12-8.84s1.42-5.71,2.24-8.54c1.77-6.3,3.65-12.6,5.36-19,1.3-4.71,2.42-9.48,3.71-14.2a17.12,17.12,0,0,1,2.07-5.12c2.24-3.18,6.48-2.94,8.07.59,2.53,5.6,5,11.25,6.06,17.44.83,4.83,2.3,9.54,3.54,14.26a3.58,3.58,0,0,0,.47,1.06c2.36,3,2.71,6.12,2,9.9-.41,2.12.88,4.53,1.41,6.83a39.21,39.21,0,0,1,1.12,6.36,4.11,4.11,0,0,1-3.65,4.53h-.05Z" transform="translate(-166.05 -429.75)"/><path id="Trazado_2" data-name="Trazado 2" class="cls-2" d="M382.14,486.84c-.47-2.3-1.77-4.71-1.42-6.83.71-3.77.36-6.95-2-9.9a3.61,3.61,0,0,1-.47-1.06c-1.18-4.77-2.71-9.42-3.53-14.26-1.06-6.18-3.54-11.84-6.07-17.43-1.59-3.54-5.83-3.77-8.07-.59a16.88,16.88,0,0,0-2.06,5.12c-1.3,4.72-2.42,9.49-3.71,14.2-1.71,6.3-3.6,12.61-5.37,19-.76,2.83-1.53,5.66-2.23,8.54l-2.13,8.84c.12,0,.24.06.36.06v1.18a3.62,3.62,0,0,0,2.71,3.77,3.45,3.45,0,0,0,4.12-1.48,13.94,13.94,0,0,0,1.59-3.41,57.29,57.29,0,0,1,2.06-6.13c2.77-5.83,5.19-6.77,11.67-5.42,3.65.77,5.18,2.89,5.6,6.66a50.46,50.46,0,0,0,1.17,6.66,4.62,4.62,0,0,0,5.19,3.41,4.07,4.07,0,0,0,3.66-4.47.49.49,0,0,0,0-.12A40.75,40.75,0,0,0,382.14,486.84Zm-13.73-18.43c-.12,4.77-2.53,6.48-7.07,5.12-2.06-.65-2.88-1.94-2.3-4.06,1.18-4.07,2.42-8.07,3.65-12.08a7.49,7.49,0,0,1,1.06-1.65,7.4,7.4,0,0,1,1.54,1.47,19.34,19.34,0,0,1,3.06,10.6A2,2,0,0,1,368.41,468.41Z" transform="translate(-166.05 -429.75)"/><path id="Trazado_3" data-name="Trazado 3" class="cls-2" d="M337.48,478.77c-1.11-3.24-1.94-6.6-2.76-9.9a5,5,0,0,1,1.88-5.71,47.92,47.92,0,0,0,5.42-5c3-3.12,3.65-7.83,1.3-11.07-5.54-7.42-12.32-12.72-22.15-12.84-2.54.35-5.07.47-7.54,1.06-5.3,1.3-6.84,3.89-5.07,9.13a11.9,11.9,0,0,1,0,8.07,36,36,0,0,0-2,15.61c.12,1.35-.29,2.77-.24,4.12.18,5.25.24,10.55.83,15.79a14.25,14.25,0,0,0,2.65,5.77c1.18,1.77,3.77,2.07,5.89,1.18s2.71-2.12,2.53-4.71a28.13,28.13,0,0,0-.58-3.77c-.65-2.95-1.6-5.89-2.07-8.9a18.18,18.18,0,0,1,0-6.66c.71-3.24,3.83-4.12,6.3-1.94a12.23,12.23,0,0,1,3.07,3.89,75.12,75.12,0,0,1,2.77,7.42c1.23,3.71,2.23,7.54,3.77,11.13a12.7,12.7,0,0,0,3.82,4.66,4.85,4.85,0,0,0,6.48-.06c1.89-1.71.83-3.65.18-5.42C340.55,486.61,338.84,482.72,337.48,478.77Zm-4-23.44c-3.54,2.35-7,4.89-11.61,4.36-.41,0-.76-.06-1.17-.06-4.48-.36-4.78-1-3.3-5.25.82-2.41,1.23-4.94,1.82-7.42s1.12-2.83,3.48-2.53c4.65.53,8.72,2.3,11.48,6.24C335.78,452.85,335.6,453.91,333.48,455.33Z" transform="translate(-166.05 -429.75)"/><path id="Trazado_4" data-name="Trazado 4" class="cls-2" d="M300.49,454.5a61.25,61.25,0,0,0-10.25-10.42,21.34,21.34,0,0,0-13-5,14.33,14.33,0,0,0-5.48.71,3.63,3.63,0,0,0-2.06,5.48,16.63,16.63,0,0,1,2.35,8.07q1.07,12.9,2,25.8a6.45,6.45,0,0,1-2.12,5.53c-2.3,2.24-1.95,5.25.82,6.9a9.37,9.37,0,0,0,4.42,1.41,28.86,28.86,0,0,0,7.78-1.12c6.42-1.94,10.78-6.65,14.61-11.78a21.43,21.43,0,0,0,4.65-13.37C304,462.46,303.26,458.33,300.49,454.5Zm-7.72,22.15a31.77,31.77,0,0,1-3.89,5.13,7.78,7.78,0,0,1-2.88,1.88c-2.3.89-3.6.12-3.89-2.35a83.22,83.22,0,0,1-.65-8.48c-.12-3,0-6.07,0-9.14h-.3c0-3.82-.06-7.65,0-11.42.06-2.07.77-2.71,2.54-1.71,2.65,1.53,5.65,3.12,7.48,5.48,6.95,8.89,6.66,11.78,1.59,20.61Z" transform="translate(-166.05 -429.75)"/><path id="Trazado_5" data-name="Trazado 5" class="cls-2" d="M266.62,487.2a14.69,14.69,0,0,1-4.89,3.59A84.68,84.68,0,0,1,249.24,495c-2.89.7-6.07.47-9.07.41s-4.19-1.18-4.42-4.07a83.44,83.44,0,0,1-.35-10.84,29.6,29.6,0,0,0-1.12-10.42,6.16,6.16,0,0,1,.12-3.89,17.34,17.34,0,0,0,.64-10.37,19.69,19.69,0,0,1-.64-6.66c.47-3,2.59-5.18,5.12-6.89,5.89-4,15.61-3.83,21.44.3,1.18.82,2.18,1.76,1.89,3.35a3.39,3.39,0,0,1-3,2.89,34.87,34.87,0,0,1-6.13.06,4.06,4.06,0,0,1-1.41-.35c-5.13-1.77-8.84,1.47-7.72,6.65a4.44,4.44,0,0,1,.06.89h0c.06,1,.12,1.94.18,2.94.17,2.65.41,2.95,3.12,3.18s5.65.3,8.48.59c3,.36,4.89,1.89,4.83,3.83s-2.12,3.65-4.83,4c-1.82.23-3.71.18-5.6.29-5.24.42-7.24,2.71-6.83,7.84a57.78,57.78,0,0,0,.82,6.42c.42,2.18,1.18,2.77,3.3,2.18,4.3-1.24,8.6-2.77,12.85-4.18.47-.18.88-.47,1.3-.65,1.47-.65,3-1.12,4.36.23a3,3,0,0,1,.25,4.16Z" transform="translate(-166.05 -429.75)"/><path id="Trazado_6" data-name="Trazado 6" class="cls-2" d="M231.09,447.14c-2.88,10.25-1.7,20.62-1.59,31,.06,3.53.42,7.07.53,10.54.06,1.77.12,3.71-1.94,4.54a5.57,5.57,0,0,1-5.83-.95c-2.54-2-3.24-4.83-3.24-7.83V467.05H219c0-6-.24-12,.12-18a13.87,13.87,0,0,1,2.47-6.42,5.54,5.54,0,0,1,7.13-1.7C231.09,442.13,232,443.84,231.09,447.14Z" transform="translate(-166.05 -429.75)"/><path id="Trazado_7" data-name="Trazado 7" class="cls-2" d="M211.18,442.25c-8.77-6.24-18.37-9.37-29.16-7.54a28.93,28.93,0,0,0-8.9,2.65c-3.59,1.89-3.41,5.89.12,7.9,1.3.7,1.3,1.35.89,2.53a26.26,26.26,0,0,0-1.48,6.24c-.47,7-.7,13.9-1.06,20.86h.65c0,5.77-.12,11.6.06,17.37.12,3.83,3.18,5.72,6.83,4.42,4.36-1.53,6.13-4.53,5.36-9.13-.41-2.59-.82-5.24-1.3-7.83-.29-1.71.18-2.77,1.95-3.36,3.71-1.3,7.42-2.65,11-4.13,7.67-3.12,14.8-6.83,18.69-14.78C217.84,451.32,216.78,446.26,211.18,442.25Zm-7.13,13.14c-3.77,5.89-8.83,9.84-15.78,10.37-1.12-.12-1.89-.18-2.66-.3-2.35-.47-2.88-1-2.65-3.36.36-3.59,1.06-7.18,1.42-10.78a24.21,24.21,0,0,0,.06-5.77c-.18-1.59.53-2.12,1.7-1.94,2.77.47,5.72.7,8.19,1.88,3.07,1.41,5.78,3.59,8.6,5.54C204.7,452.15,205.12,453.74,204.05,455.39Z" transform="translate(-166.05 -429.75)"/><path id="Trazado_8" data-name="Trazado 8" class="cls-1" d="M567.58,447.26a5.79,5.79,0,0,0-1.3-3.42c-8-8.78-17.5-14.37-29.81-13.9-2.35.12-4.71.06-7.07,0-3.88-.12-7.48,1.18-11.07,2.42-5.07,1.7-7.19,9.36-3.54,13.72,1.3,1.53,1.18,3,.89,4.66s-.95,1.76-2.24.76c-1.06-.82-2-1.88-3.12-2.59-7.25-4.83-16.14-3.53-22.92,1.71-1.88,1.47-3.71,3.06-5.71,4.77a12.46,12.46,0,0,1,0-2.59,9.67,9.67,0,0,0-1.18-7,33.13,33.13,0,0,0-13.07-12.73c-4.6-2.59-9.49-3.3-14.73-3.12-3.83.12-7.54.29-11.08,2.18-4.47,2.41-5.83,5.07-4.83,10a65.33,65.33,0,0,1,1,6.95c.06.48-.41,1-.64,1.54a8.16,8.16,0,0,1-1.36-.89c-2.35-2.47-4.65-5.06-7.13-7.42-6.36-6-13.9-8.9-22.74-8.13-7.18.65-10.6,7.66-6.65,13.67a9.51,9.51,0,0,1,1.18,3.83c.41,3.41.64,6.83.88,10.25.35,5.48.71,10.95.88,16.43a4.81,4.81,0,0,1-1.06,2.89c-3.65,4.83-2.94,9.48,2,13,5.25,3.77,10.84,3.24,16.5,1.18a34.83,34.83,0,0,0,13.9-9.55c.35-.41.82-.7,1.23-1.11a6.1,6.1,0,0,1,1,1.59,64.84,64.84,0,0,0,1.89,6.71c2.41,5.72,6.42,6.78,12,5.36,5.07-1.29,6.84-4.48,5.84-10.07-.77-4.13-1.71-8.19-2.47-12.32a18.06,18.06,0,0,1,0-3.12c.23-.06.53-.06.76-.12a21.28,21.28,0,0,1,1.42,2.77c1.06,3.07,1.88,6.13,3.06,9.13,1.3,3.36,2.35,6.9,4.3,9.9,3.89,6.13,9,8,15.43,4.19,3.12-1.83,3.89-5.13,2.24-8.31-.53-1.06-1.06-2.24-1.59-3.47a3.7,3.7,0,0,1,.94,0c.77.7,1.53,1.47,2.36,2.23,6.77,6.3,14.49,7.84,23,4.3,2.65-1.11,5-3,7.48-4.53.48-.3,1.24-.83,1.48-.71a3.06,3.06,0,0,1,.94,1.65c.18.77,0,1.59.18,2.36a13.71,13.71,0,0,0,1.06,3.88,8.89,8.89,0,0,0,9.42,4.42c5-.59,10-4.89,10.37-9.66a31.06,31.06,0,0,0-.35-7c-.77-4.71-.83-4.66,3.59-6.36,6.25-2.42,12.61-4.72,18.09-8.78C564.34,463.46,568.23,456.45,567.58,447.26ZM428.73,484.61a40.1,40.1,0,0,1-10.9,6.83,11.5,11.5,0,0,1-12.25-1.18c-2.71-2.06-2.88-3.83-.59-6.36a6.2,6.2,0,0,0,1.77-4.83c-.47-9.08-.82-18.2-1.53-27.28a18.14,18.14,0,0,0-2.24-6.3c-1.77-3.53-.77-6.13,3.06-7.19,4.36-1.23,8.43-.23,12.26,1.59a42.18,42.18,0,0,1,16,14c2,2.83,3.12,7.48,3.18,11.49A26.74,26.74,0,0,1,428.73,484.61ZM476,456.74a40.46,40.46,0,0,1-5.3,4.66c-2.83,2.06-3.83,4.59-2.71,8l6.54,18.56a26.46,26.46,0,0,1,1.35,4.18c.47,2.59-1.06,4.36-3.71,4.53a6,6,0,0,1-5.89-3.18,69.32,69.32,0,0,1-4-8.77c-1.06-2.83-1.35-6-2.59-8.72-1.12-2.53-3-4.77-4.59-7.13-1.06-1.53-2.48-1.59-4.18-1s-2.54,1.71-2.36,3.3c.53,4.36,1.24,8.72,1.94,13a55.37,55.37,0,0,1,1,5.48c.18,2.71-.59,3.77-2.77,4.59s-4.77.42-6.06-1.59a16.8,16.8,0,0,1-2.12-4.83c-1.48-5.18-1.54-10.48-1.24-17.08-.77-5.83,1.3-12.67,2.59-19.62a11.71,11.71,0,0,0-.47-6.95,12,12,0,0,1-.71-2.83c-.29-2.47.41-4.53,2.83-5.6a21.78,21.78,0,0,1,5-1.82c9.19-1.59,17,1.47,23.56,7.83a53.94,53.94,0,0,1,4.18,4.89C478.81,449.79,478.86,453.68,476,456.74Zm1,5c-1.06,4.24-2,7.83-2.83,11.49-1.47-2-1.59-4.54-1.94-6.95a1.53,1.53,0,0,1,.59-1.24c1.23-1,2.47-1.95,4.18-3.3Zm29.34,27c-5.78,3.71-14.67,3.24-20.27-1-5.95-4.54-9.31-13.14-6.66-19.62,2.95-7.24,7.6-13.61,15-17.08,3.36-1.59,7.24-1.18,10.66,0,8.54,2.89,11.43,6.83,12,18.61A22.49,22.49,0,0,1,506.32,488.79Zm56.9-34.88a22.51,22.51,0,0,1-7.77,11.49,46.59,46.59,0,0,1-16.73,8.31,29.1,29.1,0,0,0-3.89,1.3c-3.48,1.23-4.24,2.47-4,6.18.18,1.77.59,3.48.65,5.25a26.72,26.72,0,0,1-.41,6.12,5.73,5.73,0,0,1-5.6,4.77c-3.13.18-6-1.17-6.95-3.88a17.89,17.89,0,0,1-1-6.6c.36-8.13.89-16.26,1.42-24.39.35-5.36.11-10.78,1.82-16a2,2,0,0,0-.88-1.76,4.1,4.1,0,0,1-2.65-4.48,4.47,4.47,0,0,1,3.24-4.18,60.07,60.07,0,0,1,9.07-2.24,38.23,38.23,0,0,1,6.42-.06,29.59,29.59,0,0,1,17,4A46.28,46.28,0,0,1,562,444.2c2.83,2.7,2.24,6.53,1.18,9.72Z" transform="translate(-166.05 -429.75)"/><path id="Trazado_9" data-name="Trazado 9" class="cls-2" d="M562,444.19a46.66,46.66,0,0,0-8.95-6.53,29.42,29.42,0,0,0-17-4,38.35,38.35,0,0,0-6.43.06,67.47,67.47,0,0,0-9.07,2.24,4.56,4.56,0,0,0-3.24,4.18,4.19,4.19,0,0,0,2.65,4.48,2,2,0,0,1,.89,1.76c-1.71,5.25-1.48,10.67-1.83,16-.53,8.13-1.12,16.26-1.41,24.39a19.23,19.23,0,0,0,.94,6.6c.88,2.71,3.77,4.12,6.95,3.88a5.77,5.77,0,0,0,5.6-4.77,26.17,26.17,0,0,0,.41-6.12c0-1.77-.47-3.48-.64-5.25-.3-3.71.47-4.89,3.94-6.18a31.7,31.7,0,0,1,3.89-1.3,45,45,0,0,0,16.73-8.31,22.73,22.73,0,0,0,7.78-11.49C564.28,450.73,564.87,446.9,562,444.19Zm-10.9,9.37c-2.89,4.42-6.3,8.31-11.25,10.43a24.58,24.58,0,0,1-3.95,1c-1.41-.12-2.18-.18-2.94-.3-1.83-.23-3-1.23-2.77-3.12a104.73,104.73,0,0,1,1.41-10.49c.41-2.12,1.36-4.06.53-6.3-.53-1.35.35-1.76,1.53-1.76a9.35,9.35,0,0,1,2.3.29,49.53,49.53,0,0,1,14.38,7.3c1,.77,1.65,1.66.77,2.95Z" transform="translate(-166.05 -429.75)"/><path id="Trazado_10" data-name="Trazado 10" class="cls-2" d="M505,451c-3.42-1.18-7.36-1.59-10.66,0-7.37,3.53-12,9.84-15,17.08-2.65,6.54.71,15.08,6.72,19.62,5.6,4.24,14.49,4.77,20.26,1a22.47,22.47,0,0,0,10.73-19.09C516.45,457.86,513.56,453.91,505,451Zm-5.42,31c-3.06,1.24-5.48.3-7.3-2.47-3.42-5.18-.71-14,4.54-17.08a6.37,6.37,0,0,1,8.72,2.31,6.26,6.26,0,0,1,.76,2.05c.24,1.35.35,2.71.41,3.41C506.73,476.36,504.31,480.19,499.6,482Z" transform="translate(-166.05 -429.75)"/><path id="Trazado_11" data-name="Trazado 11" class="cls-2" d="M470.68,461.4a36.7,36.7,0,0,0,5.3-4.66,7.2,7.2,0,0,0,.17-10.07c-1.41-1.65-2.65-3.42-4.18-4.89-6.6-6.42-14.37-9.43-23.56-7.84a22.81,22.81,0,0,0-5,1.83c-2.36,1.12-3.12,3.18-2.83,5.6a12,12,0,0,0,.71,2.83,12.21,12.21,0,0,1,.47,6.95c-1.3,7-3.3,13.78-2.59,19.62-.3,6.65-.18,12,1.23,17.08a18.61,18.61,0,0,0,2.13,4.83,4.93,4.93,0,0,0,6.06,1.59c2.18-.82,2.95-1.88,2.77-4.59-.12-1.83-.7-3.66-1-5.48-.7-4.36-1.41-8.66-1.94-13-.18-1.59.65-2.71,2.35-3.3s3.13-.53,4.19,1c1.59,2.3,3.47,4.54,4.59,7.13,1.24,2.77,1.53,5.89,2.59,8.72a69.32,69.32,0,0,0,4,8.77,5.81,5.81,0,0,0,5.89,3.18c2.65-.17,4.13-1.94,3.71-4.53a26.92,26.92,0,0,0-1.35-4.19l-6.54-18.55C466.85,466,467.85,463.46,470.68,461.4Zm-3.18-7.49c-3.6,3.48-8,4.78-12.85,4.89-.7,0-1.35.06-2.06,0-2.06-.17-2.77-.76-2.47-2.77.53-3.47,1.3-6.89,2.06-10.36.35-1.59,1.53-2.12,3.12-1.95a17.79,17.79,0,0,1,12.43,6.48C468.85,451.62,468.85,452.62,467.5,453.91Z" transform="translate(-166.05 -429.75)"/><path id="Trazado_12" data-name="Trazado 12" class="cls-2" d="M434.33,453.86a41.62,41.62,0,0,0-16-14c-3.83-1.88-8-2.88-12.26-1.59-3.77,1.12-4.77,3.71-3.06,7.19a18.14,18.14,0,0,1,2.24,6.3c.7,9.07,1.06,18.2,1.53,27.28A6.5,6.5,0,0,1,405,483.9c-2.3,2.47-2.06,4.24.59,6.36a11.37,11.37,0,0,0,12.25,1.18,40.13,40.13,0,0,0,10.9-6.84c5.37-5.12,8.66-11.6,8.72-19.26C437.45,461.34,436.33,456.68,434.33,453.86Zm-6.42,17.9a44.81,44.81,0,0,1-3.83,7.25,7,7,0,0,1-2.3,2.24c-4.42,2.77-6.36,1.77-6.72-3.42-.29-4.71-.53-9.36-.82-14.08h.29l-.53-10.6c-.11-2.47.59-3.06,2.95-2.18,5.71,2.12,9.42,6.3,11.54,11.84C429.73,465.81,429,468.94,427.91,471.76Z" transform="translate(-166.05 -429.75)"/><path id="Trazado_13" data-name="Trazado 13" class="cls-1" d="M606.81,490.56c-.64-2.77-1.53-5.48-2.35-8.13a9,9,0,0,1-.12-5.72A6.62,6.62,0,0,0,602.4,469a5.76,5.76,0,0,1-1.71-2.6c-1.3-5-2.24-10.13-3.71-15.08-1.65-5.72-3.6-11.37-5.6-17-1.06-3-3.13-5-6.72-4.42a5.84,5.84,0,0,1-1.77,0,7.18,7.18,0,0,0-6.71,3.48,13.75,13.75,0,0,0-2.06,4.19c-2.24,7.78-4.36,15.61-6.54,23.39s-4.24,15.43-6.24,23.15c-.71,2.65-1.18,5.3-1.65,7.6.35,2.12.53,3.77.88,5.36a2.82,2.82,0,0,0,.83,1.47,9.42,9.42,0,0,0,13.25-1.4l.24-.31a15.54,15.54,0,0,0,1.94-3.94c.71-2,1.18-4.13,1.77-6.19.59-2.24,2.41-2.83,5.77-2.89,2.18,0,2.89,1.36,3.3,3.3a48.75,48.75,0,0,0,2.71,9.19c1.77,3.89,6.66,5.25,11.19,3.6A7.72,7.72,0,0,0,606.81,490.56ZM600,497.1a5.34,5.34,0,0,1-5.65-2.24A33.68,33.68,0,0,1,592,489.5a15.76,15.76,0,0,1-.59-2.89,8,8,0,0,0-12.9-4.65,9.79,9.79,0,0,0-3.77,5.48,31.47,31.47,0,0,1-1.88,5.24,10.42,10.42,0,0,1-2.13,3.12c-2.35,2.24-5.42,1.42-6.53-1.65-.36-1-.48-2.06-.77-3.18.35-1.53.65-3.06,1.06-4.53,1.71-5.84,3.53-11.6,5.18-17.44,2.18-7.66,4.24-15.32,6.37-22.92.35-1.23.47-2.53.88-3.71.94-2.35,1.71-4.89,3.12-6.95,2.53-3.71,6.83-3.12,8.37,1.12s2.82,8.54,4,12.9c1.53,5.89,2.71,11.78,4.3,17.67a11.68,11.68,0,0,0,2.59,4.42c1.12,1.3,1.89,2.59,1.36,4.24-1.06,3.54-.18,6.72.88,10.08a28,28,0,0,1,1.18,6.3C602.93,494.86,601.87,496.51,600,497.1Z" transform="translate(-166.05 -429.75)"/><path id="Trazado_14" data-name="Trazado 14" class="cls-2" d="M602.75,492.15a28,28,0,0,0-1.18-6.3c-1.06-3.3-1.94-6.54-.88-10.08.47-1.65-.24-2.94-1.36-4.24a12.48,12.48,0,0,1-2.59-4.42c-1.59-5.83-2.77-11.78-4.3-17.67-1.12-4.36-2.47-8.66-4-12.9s-5.89-4.83-8.36-1.12c-1.41,2.06-2.18,4.6-3.12,6.95a26.69,26.69,0,0,0-.89,3.71c-2.12,7.66-4.18,15.32-6.36,22.92-1.65,5.83-3.47,11.6-5.18,17.44-.47,1.47-.71,3.06-1.06,4.53a17.32,17.32,0,0,0,.76,3.18c1.12,3.07,4.19,3.89,6.54,1.65a10.39,10.39,0,0,0,2.12-3.12,34.84,34.84,0,0,0,1.89-5.24,10.14,10.14,0,0,1,3.77-5.48,8,8,0,0,1,12.9,4.65,16.65,16.65,0,0,0,.59,2.89,36,36,0,0,0,2.35,5.36A5.36,5.36,0,0,0,600,497.1C601.87,496.51,602.93,494.86,602.75,492.15Zm-17.38-19.68a5.44,5.44,0,0,1-6.07-.71,2.62,2.62,0,0,1-.76-2.06c1.18-4.71,2.47-9.42,3.71-14.14h1.12c2.06,3.95,4.24,7.84,4.59,12.43C588.2,470.53,587.43,471.59,585.37,472.47Z" transform="translate(-166.05 -429.75)"/><path id="Trazado_15" data-name="Trazado 15" class="cls-1" d="M334.24,450.67c-2.76-4-6.83-5.71-11.48-6.24-2.36-.29-2.89.18-3.48,2.53s-1,5-1.82,7.43c-1.48,4.24-1.18,4.88,3.3,5.24.41,0,.76.06,1.17.06,4.6.53,8.07-2,11.6-4.36C335.6,453.91,335.78,452.85,334.24,450.67Zm-5.36,2.83c-1.7.89-3.53,1.53-5.12,2.24a14.2,14.2,0,0,1-1.53-.59c.29-2.06.64-4.12,1.12-6.12,0-.12.76-.3,1.06-.18a43.17,43.17,0,0,1,4.65,2.36c1.06.64.94,1.7-.18,2.29Z" transform="translate(-166.05 -429.75)"/><path id="Trazado_16" data-name="Trazado 16" class="cls-1" d="M203.05,451c-2.82-1.95-5.53-4.13-8.6-5.54-2.47-1.12-5.42-1.41-8.18-1.88-1.18-.18-2,.35-1.71,1.94a27.14,27.14,0,0,1-.06,5.77c-.41,3.6-1.06,7.13-1.41,10.78-.24,2.36.29,2.95,2.59,3.36a23.61,23.61,0,0,0,2.65.3c6.95-.59,12-4.54,15.79-10.37a3,3,0,0,0-.74-4.17Zm-4,3.71a17.41,17.41,0,0,1-9,6.36c-2.06.65-2.65.06-2.71-2.12.71-3.06,1.48-6.07,2-9.13.3-1.77,1.18-1.83,2.48-1.18,2.24,1.18,4.48,2.36,6.71,3.59a1.5,1.5,0,0,1,.85,1.94,1.53,1.53,0,0,1-.37.54Z" transform="translate(-166.05 -429.75)"/><path id="Trazado_17" data-name="Trazado 17" class="cls-1" d="M368.41,467.82v.59c-.12,4.77-2.53,6.48-7.07,5.12-2.06-.65-2.88-1.94-2.3-4.06,1.18-4.07,2.42-8.07,3.65-12.08a7.49,7.49,0,0,1,1.06-1.65,7.4,7.4,0,0,1,1.54,1.47A19,19,0,0,1,368.41,467.82Z" transform="translate(-166.05 -429.75)"/><path id="Trazado_18" data-name="Trazado 18" class="cls-1" d="M291.07,456c-1.89-2.36-4.83-3.89-7.48-5.48-1.71-1-2.48-.36-2.54,1.7-.06,3.83,0,7.66,0,11.43h.3c0,3.07-.06,6.07,0,9.13.12,2.83.29,5.66.65,8.49.29,2.47,1.59,3.18,3.88,2.35a7.43,7.43,0,0,0,2.89-1.88,30.38,30.38,0,0,0,3.89-5.13C297.84,467.82,298.13,464.93,291.07,456Zm-.95,16.2c-.7,1.35-1.47,2.71-2.3,4-.23.35-.76.47-1.11.71-.18-.41-.53-.83-.53-1.24-.24-4-.42-8-.65-11.84,0-1.65-.06-3.24.06-4.83a4.55,4.55,0,0,1,.53-1.47,3.15,3.15,0,0,1,1.23.64c4.13,4.84,5.6,8.61,2.77,14Z" transform="translate(-166.05 -429.75)"/><path id="Trazado_19" data-name="Trazado 19" class="cls-1" d="M550.26,450.62a50.75,50.75,0,0,0-14.37-7.3,7.46,7.46,0,0,0-2.3-.3c-1.18,0-2,.41-1.53,1.77.82,2.24-.06,4.18-.53,6.3a100.29,100.29,0,0,0-1.42,10.48c-.17,1.89.94,2.89,2.77,3.13.77.11,1.53.17,3,.29a24.2,24.2,0,0,0,3.94-1c5-2.06,8.37-6,11.26-10.43C552,452.27,551.38,451.38,550.26,450.62Zm-4.59,3.83a17.8,17.8,0,0,1-8.6,6.18c-2.24.77-2.54.3-2.71-3.06.65-2.71,1.35-5.42,1.94-8.19.35-1.59,1.24-1.83,2.53-1.18,2.13,1.12,4.25,2.3,6.37,3.48A1.73,1.73,0,0,1,546,454a1.66,1.66,0,0,1-.3.43Z" transform="translate(-166.05 -429.75)"/><path id="Trazado_20" data-name="Trazado 20" class="cls-1" d="M467.73,450.2a17.79,17.79,0,0,0-12.43-6.48c-1.59-.17-2.77.36-3.12,1.95-.77,3.41-1.53,6.89-2.06,10.37-.3,2,.47,2.59,2.47,2.76.65.06,1.36,0,2.06,0,4.89-.05,9.25-1.41,12.84-4.88C468.85,452.62,468.85,451.62,467.73,450.2Zm-8.36,4.07a5.8,5.8,0,0,1-1.95.59c-2.12.41-2.35.17-2.24-2.3.06-.3.18-.89.24-1.48.65-3.24,1-3.53,3.89-2.12a20,20,0,0,1,3.47,2.89C461.66,452.68,460.54,453.56,459.37,454.27Z" transform="translate(-166.05 -429.75)"/><path id="Trazado_21" data-name="Trazado 21" class="cls-1" d="M428.62,462.87A19.45,19.45,0,0,0,417.07,451c-2.36-.89-3.06-.3-2.95,2.18q.27,5.3.53,10.6h-.29c.29,4.71.53,9.36.82,14.08.3,5.18,2.3,6.18,6.72,3.41a6.91,6.91,0,0,0,2.3-2.23,45.23,45.23,0,0,0,3.83-7.25C429,468.94,429.73,465.81,428.62,462.87Zm-4.13,5.71a59.5,59.5,0,0,1-3.59,7.3c-.18.36-.77.47-1.18.59a1.25,1.25,0,0,1-.47-.88c-.29-6.13-.53-12.25-.77-18.38,0-.18.18-.3.42-.77a15.25,15.25,0,0,1,5.47,7.6A7,7,0,0,1,424.49,468.58Z" transform="translate(-166.05 -429.75)"/><path id="Trazado_22" data-name="Trazado 22" class="cls-1" d="M506.38,466.87a6.4,6.4,0,0,0-7.44-5.11,6.26,6.26,0,0,0-2.05.76c-5.24,3.06-7.95,11.84-4.53,17.08,1.76,2.77,4.24,3.65,7.3,2.47,4.65-1.88,7.12-5.65,7.18-11.72C506.67,469.58,506.61,468.23,506.38,466.87Zm-6.78,11c-2.3,1.71-3.71,1.42-4.54-1.35a11.09,11.09,0,0,1-.11-4.83,15.87,15.87,0,0,1,1.65-3.72c.82-1.64,1.94-2.53,4-2.18s1.71,2.07,2.06,3.36a3.06,3.06,0,0,1,.12.95c-.35,3.12-.7,5.89-3.18,7.77Z" transform="translate(-166.05 -429.75)"/><path id="Trazado_23" data-name="Trazado 23" class="cls-1" d="M585.37,472.47a5.44,5.44,0,0,1-6.07-.71,2.62,2.62,0,0,1-.76-2.06c1.18-4.71,2.47-9.42,3.71-14.14h1.12c2.06,3.95,4.24,7.84,4.59,12.43C588.2,470.53,587.43,471.59,585.37,472.47Z" transform="translate(-166.05 -429.75)"/></g></svg>