<?xml version="1.0" encoding="utf-8"?>
<!-- Generator: Adobe Illustrator 24.2.0, SVG Export Plug-In . SVG Version: 6.00 Build 0)  -->
<svg version="1.1" id="Capa_1" xmlns="http://www.w3.org/2000/svg" xmlns:xlink="http://www.w3.org/1999/xlink" x="0px" y="0px"
	 viewBox="0 0 1997.8 876.1" style="enable-background:new 0 0 1997.8 876.1;" xml:space="preserve">
<style type="text/css">
	.st0{enable-background:new    ;}
	.st1{fill:#FFFFFF;}
</style>
<g class="st0">
	<path class="st1" d="M581.4,876.1c-45.2,0-86.2-10.3-123-30.9s-65.4-49.3-86-86c-20.6-36.8-30.9-79-30.9-126.6V226.6
		c0-18.6-4.4-35.3-13.3-50.3c-8.9-14.9-20.8-26.9-35.7-35.7c-14.9-8.9-31.3-13.3-49.1-13.3c-17.8,0-33.9,4.4-48.5,13.3
		c-14.5,8.9-26.3,20.8-35.1,35.7c-8.9,14.9-13.3,31.7-13.3,50.3v636.1H2.2v-618c0-46,10.1-87.4,30.3-124.2s48.5-66,84.8-87.8
		S195.6,0,243.3,0c48.5,0,90.9,10.9,127.2,32.7s64.6,51.1,84.8,87.8s30.3,78.2,30.3,124.2v405.9c0,17.8,4.4,34.1,13.3,49.1
		c8.9,14.9,20.6,26.9,35.1,35.7c14.5,8.9,30.3,13.3,47.3,13.3c17.8,0,33.9-4.4,48.5-13.3c14.5-8.9,26.2-20.8,35.1-35.7
		c8.9-14.9,13.3-31.3,13.3-49.1V244.8c0-46,10.1-87.4,30.3-124.2c20.2-36.8,48.7-66,85.4-87.8C830.8,10.9,873,0,920.6,0
		c48.5,0,90.7,10.9,126.6,32.7c35.9,21.8,64,51.1,84.2,87.8s30.3,78.2,30.3,124.2v618h-145.4V226.6c0-18.6-4.2-35.3-12.7-50.3
		c-8.5-14.9-20-26.9-34.5-35.7c-14.5-8.9-30.7-13.3-48.5-13.3c-17.8,0-34.1,4.4-49.1,13.3c-14.9,8.9-26.9,20.8-35.7,35.7
		c-8.9,14.9-13.3,31.7-13.3,50.3v405.9c0,47.7-10.5,89.9-31.5,126.6c-21,36.8-49.5,65.4-85.4,86
		C669.6,865.8,628.2,876.1,581.4,876.1z"/>
	<path class="st1" d="M1661,862.7c-46.9,0-88.9-11.1-126-33.3c-37.2-22.2-66.4-52.1-87.8-89.7c-21.4-37.6-32.1-79-32.1-124.2
		c0-35.5,8.3-69.3,24.8-101.2c16.5-31.9,39.8-58.8,69.7-80.6c-29.9-21.8-52.9-48.2-69.1-79.4c-16.2-31.1-24.2-63.6-24.2-97.5
		c0-45.2,10.7-86,32.1-122.4s50.3-65.4,86.6-87.2c36.4-21.8,76.7-32.7,121.2-32.7h341.7V143h-325.9c-20.2,0-38.8,5.1-55.7,15.2
		s-30.5,23.6-40.6,40.6s-15.1,36.4-15.1,58.2c0,19.4,5.2,37.6,15.7,54.5c10.5,17,24.2,30.5,41.2,40.6c17,10.1,36,15.1,57,15.1h281.1
		v128.4h-273.8c-24.2,0-45.7,5.7-64.2,17c-18.6,11.3-32.9,26.1-43,44.2c-10.1,18.2-15.1,38.2-15.1,60c0,21,5,40.6,15.1,58.8
		s24.2,32.7,42.4,43.6c18.2,10.9,39,16.4,62.4,16.4h318.7v127.2H1661z"/>
</g>
</svg>
