<?xml version="1.0" encoding="utf-8"?>
<!-- Generator: Adobe Illustrator 24.2.0, SVG Export Plug-In . SVG Version: 6.00 Build 0)  -->
<svg version="1.1" id="Capa_1" xmlns="http://www.w3.org/2000/svg" xmlns:xlink="http://www.w3.org/1999/xlink" x="0px" y="0px"
	 viewBox="0 0 320 320" style="enable-background:new 0 0 320 320;" xml:space="preserve">
<style type="text/css">
	.st0{opacity:0.92;clip-path:url(#SVGID_2_);fill:#919191;enable-background:new    ;}
	.st1{clip-path:url(#SVGID_4_);fill:#949496;}
	.st2{clip-path:url(#SVGID_6_);fill:#949496;}
	.st3{clip-path:url(#SVGID_8_);fill:#949496;}
	.st4{clip-path:url(#SVGID_10_);fill:#949496;}
	.st5{clip-path:url(#SVGID_12_);fill:#949496;}
	.st6{clip-path:url(#SVGID_14_);fill:#949496;}
	.st7{clip-path:url(#SVGID_16_);fill:#949496;}
	.st8{clip-path:url(#SVGID_18_);fill:#949496;}
	.st9{clip-path:url(#SVGID_20_);fill:#949496;}
	.st10{clip-path:url(#SVGID_22_);fill:#949496;}
	.st11{clip-path:url(#SVGID_24_);fill:#949496;}
	.st12{clip-path:url(#SVGID_26_);fill:#949496;}
	.st13{clip-path:url(#SVGID_28_);fill:#949496;}
	.st14{clip-path:url(#SVGID_30_);fill:#949496;}
</style>
<g>
	<g>
		<defs>
			<rect id="SVGID_1_" width="320" height="320"/>
		</defs>
		<use xlink:href="#SVGID_1_"  style="overflow:visible;fill:#919191;"/>
		<clipPath id="SVGID_2_">
			<use xlink:href="#SVGID_1_"  style="overflow:visible;"/>
		</clipPath>
		<rect class="st0" width="320" height="320"/>
	</g>
	<g>
		<defs>
			<rect id="SVGID_3_" width="320" height="320"/>
		</defs>
		<clipPath id="SVGID_4_">
			<use xlink:href="#SVGID_3_"  style="overflow:visible;"/>
		</clipPath>
		<polygon class="st1" points="240,320 240,400 160,320 160,240 		"/>
	</g>
	<g>
		<defs>
			<rect id="SVGID_5_" width="320" height="320"/>
		</defs>
		<clipPath id="SVGID_6_">
			<use xlink:href="#SVGID_5_"  style="overflow:visible;"/>
		</clipPath>
		<polygon class="st2" points="320,240 240,320 240,240 		"/>
	</g>
	<g>
		<defs>
			<rect id="SVGID_7_" width="320" height="320"/>
		</defs>
		<clipPath id="SVGID_8_">
			<use xlink:href="#SVGID_7_"  style="overflow:visible;"/>
		</clipPath>
		<polygon class="st3" points="80,320 80,400 0,320 0,240 		"/>
	</g>
	<g>
		<defs>
			<rect id="SVGID_9_" width="320" height="320"/>
		</defs>
		<clipPath id="SVGID_10_">
			<use xlink:href="#SVGID_9_"  style="overflow:visible;"/>
		</clipPath>
		<polygon class="st4" points="160,240 80,320 80,240 		"/>
	</g>
	<g>
		<defs>
			<rect id="SVGID_11_" width="320" height="320"/>
		</defs>
		<clipPath id="SVGID_12_">
			<use xlink:href="#SVGID_11_"  style="overflow:visible;"/>
		</clipPath>
		<polygon class="st5" points="320,160 320,240 240,160 240,80 		"/>
	</g>
	<g>
		<defs>
			<rect id="SVGID_13_" width="320" height="320"/>
		</defs>
		<clipPath id="SVGID_14_">
			<use xlink:href="#SVGID_13_"  style="overflow:visible;"/>
		</clipPath>
		<polygon class="st6" points="160,160 160,240 80,160 80,80 		"/>
	</g>
	<g>
		<defs>
			<rect id="SVGID_15_" width="320" height="320"/>
		</defs>
		<clipPath id="SVGID_16_">
			<use xlink:href="#SVGID_15_"  style="overflow:visible;"/>
		</clipPath>
		<polygon class="st7" points="240,80 160,160 160,80 		"/>
	</g>
	<g>
		<defs>
			<rect id="SVGID_17_" width="320" height="320"/>
		</defs>
		<clipPath id="SVGID_18_">
			<use xlink:href="#SVGID_17_"  style="overflow:visible;"/>
		</clipPath>
		<polygon class="st8" points="240,160 240,240 160,240 		"/>
	</g>
	<g>
		<defs>
			<rect id="SVGID_19_" width="320" height="320"/>
		</defs>
		<clipPath id="SVGID_20_">
			<use xlink:href="#SVGID_19_"  style="overflow:visible;"/>
		</clipPath>
		<polygon class="st9" points="80,80 0,160 0,80 		"/>
	</g>
	<g>
		<defs>
			<rect id="SVGID_21_" width="320" height="320"/>
		</defs>
		<clipPath id="SVGID_22_">
			<use xlink:href="#SVGID_21_"  style="overflow:visible;"/>
		</clipPath>
		<polygon class="st10" points="80,160 80,240 0,240 		"/>
	</g>
	<g>
		<defs>
			<rect id="SVGID_23_" width="320" height="320"/>
		</defs>
		<clipPath id="SVGID_24_">
			<use xlink:href="#SVGID_23_"  style="overflow:visible;"/>
		</clipPath>
		<polygon class="st11" points="240,0 240,80 160,0 160,-80 		"/>
	</g>
	<g>
		<defs>
			<rect id="SVGID_25_" width="320" height="320"/>
		</defs>
		<clipPath id="SVGID_26_">
			<use xlink:href="#SVGID_25_"  style="overflow:visible;"/>
		</clipPath>
		<polygon class="st12" points="320,0 320,80 240,80 		"/>
	</g>
	<g>
		<defs>
			<rect id="SVGID_27_" width="320" height="320"/>
		</defs>
		<clipPath id="SVGID_28_">
			<use xlink:href="#SVGID_27_"  style="overflow:visible;"/>
		</clipPath>
		<polygon class="st13" points="80,0 80,80 0,0 0,-80 		"/>
	</g>
	<g>
		<defs>
			<rect id="SVGID_29_" width="320" height="320"/>
		</defs>
		<clipPath id="SVGID_30_">
			<use xlink:href="#SVGID_29_"  style="overflow:visible;"/>
		</clipPath>
		<polygon class="st14" points="160,0 160,80 80,80 		"/>
	</g>
</g>
</svg>
